<svg xmlns="http://www.w3.org/2000/svg" width="149" height="113" viewBox="0 0 149 113">
<!-- Ink coverage varies slightly within poster-sized lettering. -->
<rect width="149" height="113" fill="#24221e"/>
<g fill="#a49a87">
<circle cx="7" cy="7" r="0.69" opacity="0.48"/>
<circle cx="53" cy="62" r="0.38" opacity="0.43"/>
<circle cx="136" cy="69" r="0.52" opacity="0.42"/>
<circle cx="129" cy="31" r="1.01" opacity="0.29"/>
<circle cx="80" cy="49" r="1.08" opacity="0.33"/>
<circle cx="69" cy="97" r="0.81" opacity="0.44"/>
<circle cx="51" cy="87" r="0.32" opacity="0.55"/>
<circle cx="124" cy="52" r="0.81" opacity="0.25"/>
<circle cx="99" cy="46" r="0.92" opacity="0.54"/>
<circle cx="127" cy="17" r="0.36" opacity="0.52"/>
<circle cx="14" cy="62" r="1.09" opacity="0.53"/>
<circle cx="13" cy="11" r="0.45" opacity="0.40"/>
<circle cx="68" cy="24" r="0.46" opacity="0.42"/>
<circle cx="3" cy="53" r="0.35" opacity="0.37"/>
<circle cx="115" cy="3" r="1.07" opacity="0.41"/>
<circle cx="5" cy="64" r="1.10" opacity="0.25"/>
<circle cx="36" cy="6" r="0.76" opacity="0.53"/>
<circle cx="116" cy="67" r="0.94" opacity="0.37"/>
<circle cx="110" cy="97" r="0.89" opacity="0.40"/>
<circle cx="24" cy="71" r="0.35" opacity="0.51"/>
<circle cx="19" cy="32" r="1.02" opacity="0.27"/>
<circle cx="107" cy="60" r="0.56" opacity="0.34"/>
<circle cx="88" cy="52" r="0.36" opacity="0.32"/>
<circle cx="138" cy="43" r="0.46" opacity="0.55"/>
<circle cx="71" cy="76" r="0.67" opacity="0.29"/>
<circle cx="41" cy="4" r="0.72" opacity="0.25"/>
<circle cx="38" cy="112" r="0.57" opacity="0.47"/>
<circle cx="112" cy="34" r="0.88" opacity="0.21"/>
<circle cx="44" cy="61" r="0.57" opacity="0.23"/>
<circle cx="127" cy="3" r="1.08" opacity="0.21"/>
<circle cx="112" cy="104" r="0.52" opacity="0.55"/>
<circle cx="63" cy="33" r="0.35" opacity="0.36"/>
<circle cx="126" cy="93" r="0.38" opacity="0.22"/>
<circle cx="104" cy="20" r="1.03" opacity="0.28"/>
<circle cx="4" cy="29" r="0.51" opacity="0.24"/>
<circle cx="138" cy="17" r="0.36" opacity="0.37"/>
<circle cx="36" cy="14" r="0.36" opacity="0.43"/>
<circle cx="33" cy="95" r="0.62" opacity="0.31"/>
<circle cx="48" cy="92" r="0.49" opacity="0.46"/>
<circle cx="44" cy="34" r="0.46" opacity="0.48"/>
<circle cx="32" cy="52" r="1.10" opacity="0.46"/>
<circle cx="109" cy="30" r="0.56" opacity="0.25"/>
<circle cx="107" cy="4" r="1.11" opacity="0.34"/>
<circle cx="51" cy="5" r="0.75" opacity="0.42"/>
<circle cx="69" cy="111" r="1.02" opacity="0.31"/>
<circle cx="57" cy="107" r="0.40" opacity="0.32"/>
<circle cx="21" cy="3" r="0.62" opacity="0.51"/>
<circle cx="37" cy="18" r="0.57" opacity="0.44"/>
<circle cx="70" cy="67" r="1.10" opacity="0.33"/>
<circle cx="11" cy="82" r="0.44" opacity="0.39"/>
<circle cx="57" cy="77" r="0.29" opacity="0.45"/>
<circle cx="49" cy="91" r="1.08" opacity="0.31"/>
<circle cx="113" cy="29" r="0.47" opacity="0.23"/>
<circle cx="97" cy="29" r="0.90" opacity="0.27"/>
<circle cx="68" cy="46" r="0.72" opacity="0.38"/>
<circle cx="34" cy="74" r="0.57" opacity="0.35"/>
<circle cx="72" cy="8" r="0.51" opacity="0.21"/>
<circle cx="99" cy="100" r="0.28" opacity="0.28"/>
<circle cx="149" cy="89" r="0.89" opacity="0.36"/>
<circle cx="6" cy="58" r="0.38" opacity="0.48"/>
<circle cx="127" cy="39" r="1.10" opacity="0.54"/>
<circle cx="147" cy="74" r="1.10" opacity="0.43"/>
<circle cx="26" cy="28" r="0.78" opacity="0.22"/>
<circle cx="8" cy="62" r="0.53" opacity="0.31"/>
<circle cx="84" cy="6" r="0.40" opacity="0.28"/>
<circle cx="30" cy="81" r="0.96" opacity="0.32"/>
<circle cx="7" cy="96" r="1.10" opacity="0.52"/>
<circle cx="47" cy="83" r="0.68" opacity="0.51"/>
<circle cx="107" cy="87" r="0.64" opacity="0.51"/>
<circle cx="65" cy="2" r="0.65" opacity="0.29"/>
<circle cx="104" cy="17" r="0.39" opacity="0.26"/>
<circle cx="53" cy="97" r="1.00" opacity="0.49"/>
<circle cx="33" cy="104" r="1.12" opacity="0.34"/>
<circle cx="53" cy="97" r="0.61" opacity="0.24"/>
<circle cx="23" cy="19" r="0.57" opacity="0.39"/>
<circle cx="112" cy="12" r="0.51" opacity="0.31"/>
<circle cx="42" cy="72" r="0.32" opacity="0.33"/>
<circle cx="55" cy="41" r="0.32" opacity="0.40"/>
<circle cx="51" cy="19" r="0.62" opacity="0.27"/>
<circle cx="10" cy="108" r="0.86" opacity="0.29"/>
<circle cx="118" cy="10" r="0.84" opacity="0.51"/>
<circle cx="47" cy="16" r="0.97" opacity="0.20"/>
<circle cx="46" cy="9" r="0.54" opacity="0.30"/>
<circle cx="140" cy="19" r="0.65" opacity="0.45"/>
<circle cx="117" cy="48" r="0.61" opacity="0.32"/>
<circle cx="13" cy="55" r="0.33" opacity="0.56"/>
<circle cx="91" cy="107" r="0.38" opacity="0.41"/>
<circle cx="43" cy="51" r="0.81" opacity="0.29"/>
<circle cx="78" cy="29" r="0.32" opacity="0.42"/>
<circle cx="95" cy="8" r="0.54" opacity="0.21"/>
<circle cx="34" cy="11" r="0.86" opacity="0.35"/>
<circle cx="29" cy="77" r="0.94" opacity="0.26"/>
<circle cx="57" cy="0" r="0.91" opacity="0.34"/>
<circle cx="116" cy="92" r="0.50" opacity="0.27"/>
<circle cx="145" cy="37" r="0.75" opacity="0.40"/>
<circle cx="118" cy="16" r="1.04" opacity="0.33"/>
<circle cx="75" cy="95" r="0.75" opacity="0.47"/>
<circle cx="50" cy="104" r="0.42" opacity="0.40"/>
<circle cx="104" cy="13" r="0.88" opacity="0.37"/>
<circle cx="52" cy="91" r="0.64" opacity="0.26"/>
<circle cx="80" cy="82" r="0.86" opacity="0.25"/>
<circle cx="45" cy="90" r="0.31" opacity="0.28"/>
<circle cx="78" cy="35" r="0.56" opacity="0.44"/>
<circle cx="141" cy="102" r="0.84" opacity="0.38"/>
<circle cx="30" cy="107" r="0.60" opacity="0.30"/>
<circle cx="54" cy="70" r="0.74" opacity="0.41"/>
<circle cx="83" cy="12" r="1.07" opacity="0.56"/>
<circle cx="42" cy="61" r="0.87" opacity="0.46"/>
<circle cx="18" cy="18" r="0.76" opacity="0.42"/>
<circle cx="44" cy="27" r="0.82" opacity="0.46"/>
<circle cx="32" cy="25" r="1.02" opacity="0.53"/>
<circle cx="47" cy="82" r="0.28" opacity="0.23"/>
<circle cx="88" cy="71" r="0.66" opacity="0.39"/>
<circle cx="125" cy="0" r="0.91" opacity="0.47"/>
<circle cx="29" cy="60" r="0.53" opacity="0.29"/>
<circle cx="144" cy="95" r="0.65" opacity="0.33"/>
<circle cx="34" cy="34" r="0.58" opacity="0.29"/>
<circle cx="76" cy="47" r="1.04" opacity="0.50"/>
<circle cx="100" cy="88" r="1.04" opacity="0.30"/>
<circle cx="99" cy="35" r="0.67" opacity="0.47"/>
<circle cx="15" cy="39" r="1.07" opacity="0.25"/>
<circle cx="55" cy="99" r="0.62" opacity="0.31"/>
<circle cx="85" cy="41" r="0.44" opacity="0.52"/>
<circle cx="51" cy="42" r="1.06" opacity="0.47"/>
<circle cx="33" cy="17" r="0.76" opacity="0.41"/>
<circle cx="3" cy="34" r="0.63" opacity="0.28"/>
<circle cx="96" cy="61" r="1.07" opacity="0.21"/>
<circle cx="90" cy="40" r="1.05" opacity="0.24"/>
<circle cx="112" cy="69" r="0.74" opacity="0.50"/>
<circle cx="76" cy="105" r="1.00" opacity="0.42"/>
<circle cx="51" cy="98" r="1.11" opacity="0.32"/>
<circle cx="66" cy="39" r="0.53" opacity="0.31"/>
<circle cx="26" cy="72" r="0.51" opacity="0.43"/>
<circle cx="143" cy="46" r="0.67" opacity="0.25"/>
<circle cx="42" cy="8" r="0.70" opacity="0.28"/>
<circle cx="71" cy="39" r="1.01" opacity="0.33"/>
<circle cx="25" cy="5" r="0.49" opacity="0.46"/>
<circle cx="116" cy="89" r="0.83" opacity="0.50"/>
<circle cx="136" cy="108" r="0.72" opacity="0.23"/>
<circle cx="4" cy="58" r="0.73" opacity="0.40"/>
<circle cx="63" cy="29" r="0.68" opacity="0.36"/>
<circle cx="96" cy="53" r="0.36" opacity="0.31"/>
<circle cx="149" cy="80" r="0.49" opacity="0.53"/>
<circle cx="55" cy="100" r="0.68" opacity="0.30"/>
<circle cx="128" cy="48" r="0.95" opacity="0.48"/>
<circle cx="67" cy="33" r="0.53" opacity="0.40"/>
<circle cx="137" cy="6" r="0.38" opacity="0.27"/>
<circle cx="49" cy="103" r="0.79" opacity="0.43"/>
<circle cx="44" cy="34" r="1.09" opacity="0.28"/>
<circle cx="9" cy="101" r="0.63" opacity="0.23"/>
<circle cx="45" cy="105" r="0.70" opacity="0.48"/>
<circle cx="45" cy="59" r="0.51" opacity="0.47"/>
<circle cx="60" cy="26" r="0.32" opacity="0.46"/>
<circle cx="31" cy="108" r="0.95" opacity="0.37"/>
<circle cx="62" cy="50" r="0.50" opacity="0.44"/>
<circle cx="19" cy="47" r="0.60" opacity="0.40"/>
<circle cx="111" cy="110" r="1.12" opacity="0.22"/>
<circle cx="148" cy="105" r="0.97" opacity="0.49"/>
<circle cx="8" cy="33" r="0.94" opacity="0.54"/>
<circle cx="17" cy="5" r="0.31" opacity="0.34"/>
</g><g fill="none" stroke="#aea38e" stroke-linecap="round">
<path d="M78 79l4.2 1.7" stroke-width=".6" opacity="0.20"/>
<path d="M58 78l5.6 0.4" stroke-width=".6" opacity="0.35"/>
<path d="M6 63l3.3 0.8" stroke-width=".6" opacity="0.17"/>
<path d="M46 31l2.2 -1.5" stroke-width=".6" opacity="0.39"/>
<path d="M22 105l3.2 -1.1" stroke-width=".6" opacity="0.40"/>
<path d="M17 14l6.1 -0.8" stroke-width=".6" opacity="0.39"/>
<path d="M95 97l3.8 0.6" stroke-width=".6" opacity="0.35"/>
<path d="M12 10l2.5 0.3" stroke-width=".6" opacity="0.19"/>
<path d="M56 16l3.0 1.7" stroke-width=".6" opacity="0.34"/>
<path d="M25 27l4.6 -1.3" stroke-width=".6" opacity="0.28"/>
<path d="M94 62l3.3 1.8" stroke-width=".6" opacity="0.24"/>
<path d="M46 97l2.0 -0.0" stroke-width=".6" opacity="0.35"/>
<path d="M31 86l3.6 -0.6" stroke-width=".6" opacity="0.27"/>
<path d="M136 12l5.4 0.8" stroke-width=".6" opacity="0.23"/>
<path d="M110 13l6.3 -1.4" stroke-width=".6" opacity="0.22"/>
<path d="M13 1l4.9 -1.2" stroke-width=".6" opacity="0.35"/>
<path d="M1 111l6.2 -0.3" stroke-width=".6" opacity="0.42"/>
<path d="M50 53l6.9 1.7" stroke-width=".6" opacity="0.32"/>
</g></svg>
