<svg xmlns="http://www.w3.org/2000/svg" width="233" height="211" viewBox="0 0 233 211">
<!-- Fine fibers and ink-light flecks in the printed ticket stock. -->
<g fill="#81725f">
<circle cx="134" cy="181" r="0.38" opacity="0.14"/>
<circle cx="163" cy="169" r="0.69" opacity="0.19"/>
<circle cx="95" cy="162" r="0.76" opacity="0.11"/>
<circle cx="6" cy="66" r="0.59" opacity="0.12"/>
<circle cx="207" cy="10" r="0.60" opacity="0.13"/>
<circle cx="47" cy="42" r="0.33" opacity="0.14"/>
<circle cx="153" cy="190" r="0.71" opacity="0.21"/>
<circle cx="111" cy="3" r="0.50" opacity="0.21"/>
<circle cx="3" cy="146" r="0.48" opacity="0.12"/>
<circle cx="8" cy="135" r="0.55" opacity="0.16"/>
<circle cx="11" cy="181" r="0.57" opacity="0.13"/>
<circle cx="110" cy="57" r="0.81" opacity="0.22"/>
<circle cx="216" cy="67" r="0.41" opacity="0.12"/>
<circle cx="202" cy="82" r="0.59" opacity="0.16"/>
<circle cx="138" cy="139" r="0.80" opacity="0.19"/>
<circle cx="223" cy="117" r="0.60" opacity="0.14"/>
<circle cx="164" cy="23" r="0.76" opacity="0.17"/>
<circle cx="125" cy="192" r="0.69" opacity="0.20"/>
<circle cx="69" cy="61" r="0.77" opacity="0.13"/>
<circle cx="66" cy="109" r="0.85" opacity="0.19"/>
<circle cx="177" cy="83" r="0.68" opacity="0.20"/>
<circle cx="109" cy="210" r="0.49" opacity="0.13"/>
<circle cx="176" cy="89" r="0.58" opacity="0.12"/>
<circle cx="217" cy="101" r="0.85" opacity="0.18"/>
<circle cx="202" cy="111" r="0.60" opacity="0.23"/>
<circle cx="213" cy="200" r="0.72" opacity="0.22"/>
<circle cx="166" cy="5" r="0.63" opacity="0.23"/>
<circle cx="139" cy="47" r="0.46" opacity="0.19"/>
<circle cx="132" cy="25" r="0.58" opacity="0.17"/>
<circle cx="161" cy="183" r="0.34" opacity="0.20"/>
<circle cx="89" cy="123" r="0.39" opacity="0.17"/>
<circle cx="189" cy="70" r="0.34" opacity="0.17"/>
<circle cx="84" cy="80" r="0.44" opacity="0.12"/>
<circle cx="209" cy="136" r="0.59" opacity="0.13"/>
<circle cx="119" cy="150" r="0.69" opacity="0.14"/>
<circle cx="98" cy="202" r="0.49" opacity="0.20"/>
<circle cx="142" cy="170" r="0.33" opacity="0.13"/>
<circle cx="149" cy="79" r="0.52" opacity="0.21"/>
<circle cx="13" cy="89" r="0.47" opacity="0.22"/>
<circle cx="211" cy="113" r="0.51" opacity="0.23"/>
<circle cx="204" cy="208" r="0.68" opacity="0.14"/>
<circle cx="30" cy="44" r="0.86" opacity="0.22"/>
<circle cx="57" cy="129" r="0.76" opacity="0.16"/>
<circle cx="213" cy="137" r="0.66" opacity="0.22"/>
<circle cx="215" cy="153" r="0.69" opacity="0.13"/>
<circle cx="93" cy="198" r="0.39" opacity="0.18"/>
<circle cx="212" cy="4" r="0.49" opacity="0.12"/>
<circle cx="78" cy="114" r="0.67" opacity="0.18"/>
<circle cx="107" cy="29" r="0.53" opacity="0.14"/>
<circle cx="53" cy="99" r="0.80" opacity="0.21"/>
<circle cx="233" cy="105" r="0.73" opacity="0.19"/>
<circle cx="228" cy="188" r="0.48" opacity="0.18"/>
<circle cx="12" cy="101" r="0.36" opacity="0.20"/>
<circle cx="192" cy="188" r="0.75" opacity="0.20"/>
<circle cx="171" cy="166" r="0.74" opacity="0.13"/>
<circle cx="185" cy="15" r="0.42" opacity="0.19"/>
<circle cx="85" cy="79" r="0.54" opacity="0.12"/>
<circle cx="165" cy="26" r="0.53" opacity="0.12"/>
<circle cx="51" cy="25" r="0.79" opacity="0.17"/>
<circle cx="212" cy="26" r="0.36" opacity="0.10"/>
<circle cx="89" cy="65" r="0.65" opacity="0.12"/>
<circle cx="122" cy="30" r="0.44" opacity="0.20"/>
<circle cx="52" cy="31" r="0.70" opacity="0.19"/>
<circle cx="49" cy="164" r="0.64" opacity="0.13"/>
<circle cx="188" cy="36" r="0.84" opacity="0.16"/>
<circle cx="148" cy="22" r="0.59" opacity="0.20"/>
<circle cx="181" cy="44" r="0.55" opacity="0.15"/>
<circle cx="132" cy="124" r="0.81" opacity="0.14"/>
<circle cx="76" cy="53" r="0.38" opacity="0.23"/>
<circle cx="173" cy="30" r="0.73" opacity="0.22"/>
<circle cx="146" cy="139" r="0.52" opacity="0.21"/>
<circle cx="176" cy="11" r="0.62" opacity="0.19"/>
<circle cx="190" cy="47" r="0.76" opacity="0.13"/>
<circle cx="171" cy="132" r="0.43" opacity="0.13"/>
<circle cx="132" cy="164" r="0.39" opacity="0.16"/>
<circle cx="160" cy="210" r="0.72" opacity="0.15"/>
<circle cx="105" cy="210" r="0.54" opacity="0.13"/>
<circle cx="221" cy="197" r="0.45" opacity="0.14"/>
<circle cx="11" cy="109" r="0.76" opacity="0.20"/>
<circle cx="56" cy="36" r="0.64" opacity="0.12"/>
<circle cx="144" cy="13" r="0.67" opacity="0.17"/>
<circle cx="95" cy="80" r="0.67" opacity="0.12"/>
<circle cx="220" cy="64" r="0.72" opacity="0.22"/>
<circle cx="209" cy="59" r="0.72" opacity="0.22"/>
<circle cx="30" cy="59" r="0.84" opacity="0.23"/>
<circle cx="111" cy="70" r="0.49" opacity="0.22"/>
<circle cx="177" cy="204" r="0.60" opacity="0.13"/>
<circle cx="216" cy="99" r="0.53" opacity="0.12"/>
<circle cx="62" cy="57" r="0.80" opacity="0.19"/>
<circle cx="51" cy="183" r="0.81" opacity="0.12"/>
<circle cx="70" cy="90" r="0.76" opacity="0.19"/>
<circle cx="95" cy="69" r="0.72" opacity="0.20"/>
<circle cx="142" cy="122" r="0.63" opacity="0.21"/>
<circle cx="120" cy="8" r="0.68" opacity="0.16"/>
<circle cx="59" cy="57" r="0.35" opacity="0.21"/>
<circle cx="149" cy="30" r="0.64" opacity="0.14"/>
<circle cx="19" cy="76" r="0.77" opacity="0.14"/>
<circle cx="1" cy="57" r="0.77" opacity="0.14"/>
<circle cx="44" cy="29" r="0.85" opacity="0.22"/>
<circle cx="145" cy="100" r="0.59" opacity="0.20"/>
<circle cx="47" cy="30" r="0.84" opacity="0.19"/>
<circle cx="21" cy="43" r="0.71" opacity="0.17"/>
<circle cx="27" cy="151" r="0.75" opacity="0.11"/>
<circle cx="50" cy="165" r="0.36" opacity="0.21"/>
<circle cx="14" cy="142" r="0.66" opacity="0.17"/>
<circle cx="104" cy="16" r="0.57" opacity="0.17"/>
<circle cx="172" cy="187" r="0.46" opacity="0.11"/>
<circle cx="138" cy="178" r="0.72" opacity="0.14"/>
<circle cx="124" cy="205" r="0.47" opacity="0.23"/>
<circle cx="31" cy="188" r="0.81" opacity="0.18"/>
<circle cx="22" cy="196" r="0.56" opacity="0.14"/>
<circle cx="3" cy="195" r="0.84" opacity="0.20"/>
<circle cx="221" cy="209" r="0.52" opacity="0.13"/>
<circle cx="43" cy="128" r="0.67" opacity="0.12"/>
<circle cx="219" cy="187" r="0.57" opacity="0.23"/>
<circle cx="39" cy="143" r="0.65" opacity="0.16"/>
<circle cx="157" cy="14" r="0.52" opacity="0.11"/>
<circle cx="106" cy="21" r="0.53" opacity="0.12"/>
<circle cx="187" cy="113" r="0.78" opacity="0.19"/>
<circle cx="35" cy="64" r="0.32" opacity="0.15"/>
<circle cx="222" cy="54" r="0.66" opacity="0.21"/>
<circle cx="31" cy="182" r="0.38" opacity="0.15"/>
<circle cx="101" cy="199" r="0.76" opacity="0.14"/>
<circle cx="177" cy="91" r="0.36" opacity="0.10"/>
<circle cx="69" cy="142" r="0.79" opacity="0.14"/>
</g><g fill="none" stroke="#8b7b65" stroke-linecap="round">
<path d="M120 141l4.3 0.6" stroke-width=".45" opacity="0.17"/>
<path d="M203 36l3.5 0.0" stroke-width=".45" opacity="0.16"/>
<path d="M218 13l4.0 -0.8" stroke-width=".45" opacity="0.13"/>
<path d="M195 85l2.7 0.4" stroke-width=".45" opacity="0.18"/>
<path d="M49 151l2.4 0.2" stroke-width=".45" opacity="0.09"/>
<path d="M100 98l1.5 0.3" stroke-width=".45" opacity="0.14"/>
<path d="M34 83l1.9 0.0" stroke-width=".45" opacity="0.17"/>
<path d="M44 133l3.3 1.0" stroke-width=".45" opacity="0.09"/>
<path d="M191 43l2.3 0.2" stroke-width=".45" opacity="0.18"/>
<path d="M1 76l3.4 0.6" stroke-width=".45" opacity="0.12"/>
<path d="M54 204l2.7 -0.6" stroke-width=".45" opacity="0.13"/>
<path d="M84 103l2.7 0.8" stroke-width=".45" opacity="0.19"/>
<path d="M229 159l1.4 -0.9" stroke-width=".45" opacity="0.14"/>
<path d="M55 82l1.6 -0.8" stroke-width=".45" opacity="0.13"/>
<path d="M30 139l1.8 0.1" stroke-width=".45" opacity="0.12"/>
<path d="M163 205l1.5 0.5" stroke-width=".45" opacity="0.14"/>
<path d="M164 78l2.5 -1.0" stroke-width=".45" opacity="0.18"/>
<path d="M141 187l2.1 0.7" stroke-width=".45" opacity="0.18"/>
<path d="M141 184l2.6 -0.6" stroke-width=".45" opacity="0.18"/>
<path d="M25 112l2.1 1.0" stroke-width=".45" opacity="0.18"/>
<path d="M126 187l2.2 0.9" stroke-width=".45" opacity="0.09"/>
<path d="M129 137l2.9 -0.6" stroke-width=".45" opacity="0.11"/>
<path d="M106 68l2.3 0.1" stroke-width=".45" opacity="0.10"/>
<path d="M56 31l1.7 -0.7" stroke-width=".45" opacity="0.12"/>
<path d="M221 192l4.0 -0.5" stroke-width=".45" opacity="0.12"/>
<path d="M9 64l3.9 0.3" stroke-width=".45" opacity="0.16"/>
<path d="M162 18l2.2 1.0" stroke-width=".45" opacity="0.12"/>
</g></svg>
